{
  "accessors": [
    {
      "bufferView": 0,
      "componentType": 5125,
      "count": 11472,
      "type": "SCALAR"
    },
    {
      "bufferView": 1,
      "componentType": 5126,
      "count": 3366,
      "max": [
        0.702421426773071,
        1.0,
        0.194575265049934
      ],
      "min": [
        -0.702421486377716,
        -1.0,
        -0.194575250148773
      ],
      "type": "VEC3"
    },
    {
      "bufferView": 2,
      "componentType": 5126,
      "count": 3366,
      "type": "VEC3"
    },
    {
      "bufferView": 3,
      "componentType": 5126,
      "count": 3366,
      "type": "VEC2"
    }
  ],
  "asset": {
    "generator": "Substance Painter 2018.3.1",
    "version": "2.0"
  },
  "bufferViews": [
    {
      "buffer": 0,
      "byteLength": 45888,
      "target": 34963
    },
    {
      "buffer": 0,
      "byteLength": 40392,
      "byteOffset": 45888,
      "target": 34962
    },
    {
      "buffer": 0,
      "byteLength": 40392,
      "byteOffset": 86280,
      "target": 34962
    },
    {
      "buffer": 0,
      "byteLength": 26928,
      "byteOffset": 126672,
      "target": 34962
    }
  ],
  "buffers": [
    {
      "byteLength": 153600,
      "uri": "bag.bin"
    }
  ],
  "images": [
    {
      "uri": "Bag_baseColor.png"
    },
    {
      "uri": "Bag_occlusionRoughnessMetallic.png"
    },
    {
      "uri": "Bag_normal.png"
    }
  ],
  "materials": [
    {
      "alphaMode": "OPAQUE",
      "name": "Bag",
      "normalTexture": {
        "index": 2
      },
      "occlusionTexture": {
        "index": 1
      },
      "pbrMetallicRoughness": {
        "baseColorTexture": {
          "index": 0
        },
        "metallicRoughnessTexture": {
          "index": 1
        }
      }
    }
  ],
  "meshes": [
    {
      "name": "LeatherBag",
      "primitives": [
        {
          "attributes": {
            "NORMAL": 2,
            "POSITION": 1,
            "TEXCOORD_0": 3
          },
          "indices": 0,
          "material": 0,
          "mode": 4
        }
      ]
    }
  ],
  "nodes": [
    {
      "children": [
        1
      ],
      "name": "root",
      "scale": [
        30.7845783233643,
        30.7845783233643,
        30.7845783233643
      ],
      "translation": [
        0.0,
        30.7845783233643,
        -4.76837158203125e-07
      ]
    },
    {
      "children": [
        2
      ],
      "name": "LeatherBag"
    },
    {
      "mesh": 0,
      "name": "LeatherBag"
    }
  ],
  "samplers": [
    {
      "magFilter": 9729,
      "minFilter": 9985,
      "wrapS": 10497,
      "wrapT": 10497
    }
  ],
  "scene": 0,
  "scenes": [
    {
      "name": "Scene",
      "nodes": [
        0
      ]
    }
  ],
  "textures": [
    {
      "sampler": 0,
      "source": 0
    },
    {
      "sampler": 0,
      "source": 1
    },
    {
      "sampler": 0,
      "source": 2
    }
  ]
}